STARTFONT 2.1
COMMENT Exported by Fony v1.4.7
FONT 12X18TG
SIZE 18 96 96
FONTBOUNDINGBOX 12 17 0 -4
STARTPROPERTIES 6
COPYRIGHT "Tangar @ http://tangar.info for TomeNET @ http://tomenet.eu"
RESOLUTION_X 96
RESOLUTION_Y 96
FONT_ASCENT 14
FONT_DESCENT 4
DEFAULT_CHAR 31
ENDPROPERTIES
CHARS 256
STARTCHAR 000
ENCODING 0
SWIDTH 864 0
DWIDTH 12 0
BBX 12 18 0 -4
BITMAP
8000
4000
4000
0020
0000
1040
0480
0480
0000
0200
0300
0000
0480
0800
1040
0020
2010
2000
ENDCHAR
STARTCHAR 001
ENCODING 1
SWIDTH 864 0
DWIDTH 12 0
BBX 10 1 0 -2
BITMAP
9240
ENDCHAR
STARTCHAR 002
ENCODING 2
SWIDTH 864 0
DWIDTH 12 0
BBX 12 18 0 -4
BITMAP
FFF0
FFF0
FFF0
FFF0
FFF0
FFF0
FFF0
FFF0
FFF0
FFF0
FFF0
FFF0
FFF0
FFF0
FFF0
FFF0
FFF0
FFF0
ENDCHAR
STARTCHAR 003
ENCODING 3
SWIDTH 864 0
DWIDTH 12 0
BBX 11 1 1 -1
BITMAP
DB60
ENDCHAR
STARTCHAR 004
ENCODING 4
SWIDTH 864 0
DWIDTH 12 0
BBX 3 4 5 -3
BITMAP
40
A0
E0
40
ENDCHAR
STARTCHAR 005
ENCODING 5
SWIDTH 864 0
DWIDTH 12 0
BBX 11 3 1 -1
BITMAP
9240
0000
4920
ENDCHAR
STARTCHAR 006
ENCODING 6
SWIDTH 864 0
DWIDTH 12 0
BBX 12 7 0 -2
BITMAP
0880
1540
0880
0200
2500
8240
1010
ENDCHAR
STARTCHAR 007
ENCODING 7
SWIDTH 864 0
DWIDTH 12 0
BBX 11 1 1 0
BITMAP
DB60
ENDCHAR
STARTCHAR 008
ENCODING 8
SWIDTH 864 0
DWIDTH 12 0
BBX 12 3 0 3
BITMAP
2220
5550
8880
ENDCHAR
STARTCHAR 009
ENCODING 9
SWIDTH 864 0
DWIDTH 12 0
BBX 7 5 2 1
BITMAP
82
C6
6C
38
10
ENDCHAR
STARTCHAR 010
ENCODING 10
SWIDTH 864 0
DWIDTH 12 0
BBX 12 16 0 -4
BITMAP
FC70
FCF0
FCF0
0000
E7F0
E7F0
E7F0
E3F0
0000
FCF0
FCF0
FC70
0000
E3F0
E7F0
E7F0
ENDCHAR
STARTCHAR 011
ENCODING 11
SWIDTH 864 0
DWIDTH 12 0
BBX 12 16 0 -4
BITMAP
FCF0
FCF0
FCF0
0000
E7F0
E7F0
E7F0
E7F0
0000
FCF0
FCF0
FCF0
0000
E7F0
E7F0
E7F0
ENDCHAR
STARTCHAR 012
ENCODING 12
SWIDTH 864 0
DWIDTH 12 0
BBX 12 16 0 -4
BITMAP
FCF0
FCB0
FCF0
0000
E7F0
A7F0
A7F0
E7F0
0000
FCF0
FCB0
FCF0
0000
E7F0
A7F0
E7F0
ENDCHAR
STARTCHAR 013
ENCODING 13
SWIDTH 864 0
DWIDTH 12 0
BBX 12 18 0 -4
BITMAP
FFF0
7BF0
7BF0
8F80
D840
E050
7850
3FD0
3FD0
E7D0
F850
7FD0
2FB0
8780
F070
7BF0
3330
B730
ENDCHAR
STARTCHAR 014
ENCODING 14
SWIDTH 864 0
DWIDTH 12 0
BBX 12 17 0 -4
BITMAP
0080
0180
03C0
1340
1AE0
3FF0
3DF0
7DF0
F340
E770
EDF0
DEB0
9E80
1FC0
13C0
3FE0
7FF0
ENDCHAR
STARTCHAR 015
ENCODING 15
SWIDTH 864 0
DWIDTH 12 0
BBX 12 15 0 -4
BITMAP
0700
0D80
1DC0
3FE0
7FF0
FC70
9B30
6790
F7E0
EFF0
DFF0
1FF0
3FF0
7FF0
7FF0
ENDCHAR
STARTCHAR 016
ENCODING 16
SWIDTH 864 0
DWIDTH 12 0
BBX 12 18 0 -4
BITMAP
FFF0
FFF0
C9B0
FFF0
E6B0
FFF0
DA30
FFF0
E8F0
FFF0
E370
FFF0
CD30
FFF0
F4B0
FFF0
FFF0
FFF0
ENDCHAR
STARTCHAR 017
ENCODING 17
SWIDTH 864 0
DWIDTH 12 0
BBX 12 18 0 -4
BITMAP
FFF0
FFF0
C9B0
D370
E6B0
CD30
DA30
F470
E8F0
D1B0
E370
C6B0
CD30
DA70
F4B0
E930
FFF0
FFF0
ENDCHAR
STARTCHAR 018
ENCODING 18
SWIDTH 864 0
DWIDTH 12 0
BBX 12 18 0 -4
BITMAP
FFF0
FFF0
CC30
D430
E430
CC30
DC30
F430
EC30
D430
E430
C430
CC30
DC30
F430
EC30
FFF0
FFF0
ENDCHAR
STARTCHAR 019
ENCODING 19
SWIDTH 864 0
DWIDTH 12 0
BBX 12 18 0 -4
BITMAP
FFF0
FFF0
D270
FFF0
C930
FFF0
FFF0
C030
FFF0
D7B0
FFF0
F7B0
FFF0
C630
FFF0
C630
FFF0
FFF0
ENDCHAR
STARTCHAR 020
ENCODING 20
SWIDTH 864 0
DWIDTH 12 0
BBX 12 18 0 -4
BITMAP
FFF0
FFF0
D270
E4B0
C930
D270
FFF0
C030
C6B0
D7B0
DEF0
F7B0
DE30
C630
CF30
C630
FFF0
FFF0
ENDCHAR
STARTCHAR 021
ENCODING 21
SWIDTH 864 0
DWIDTH 12 0
BBX 12 18 0 -4
BITMAP
FFF0
FFF0
D430
E430
CC30
D430
FFF0
C030
C6B0
D7B0
DEF0
F7B0
DE30
C630
CF30
C630
FFF0
FFF0
ENDCHAR
STARTCHAR 022
ENCODING 22
SWIDTH 864 0
DWIDTH 12 0
BBX 12 18 0 -4
BITMAP
8000
4000
4000
0020
0000
1040
0480
0480
0000
0200
0300
0000
0480
0800
1040
0020
2010
2000
ENDCHAR
STARTCHAR 023
ENCODING 23
SWIDTH 864 0
DWIDTH 12 0
BBX 12 18 0 -4
BITMAP
8000
4000
4000
0020
0000
1040
0480
0480
0000
0200
0300
0000
0480
0800
1040
0020
2010
2000
ENDCHAR
STARTCHAR 024
ENCODING 24
SWIDTH 864 0
DWIDTH 12 0
BBX 12 18 0 -4
BITMAP
8000
4000
4000
0020
0000
1040
0480
0480
0000
0200
0300
0000
0480
0800
1040
0020
2010
2000
ENDCHAR
STARTCHAR 025
ENCODING 25
SWIDTH 864 0
DWIDTH 12 0
BBX 12 18 0 -4
BITMAP
8000
4000
4000
0020
0000
1040
0480
0480
0000
0200
0300
0000
0480
0800
1040
0020
2010
2000
ENDCHAR
STARTCHAR 026
ENCODING 26
SWIDTH 864 0
DWIDTH 12 0
BBX 12 18 0 -4
BITMAP
8000
4000
4000
0020
0000
1040
0480
0480
0000
0200
0300
0000
0480
0800
1040
0020
2010
2000
ENDCHAR
STARTCHAR 027
ENCODING 27
SWIDTH 864 0
DWIDTH 12 0
BBX 12 18 0 -4
BITMAP
8000
4000
4000
0020
0000
1040
0480
0480
0000
0200
0300
0000
0480
0800
1040
0020
2010
2000
ENDCHAR
STARTCHAR 028
ENCODING 28
SWIDTH 864 0
DWIDTH 12 0
BBX 12 18 0 -4
BITMAP
8000
4000
4000
0020
0000
1040
0480
0480
0000
0200
0300
0000
0480
0800
1040
0020
2010
2000
ENDCHAR
STARTCHAR 029
ENCODING 29
SWIDTH 864 0
DWIDTH 12 0
BBX 12 18 0 -4
BITMAP
8000
4000
4000
0020
0000
1040
0480
0480
0000
0200
0300
0000
0480
0800
1040
0020
2010
2000
ENDCHAR
STARTCHAR 030
ENCODING 30
SWIDTH 864 0
DWIDTH 12 0
BBX 12 18 0 -4
BITMAP
8000
4000
4000
0020
0000
1040
0480
0480
0000
0200
0300
0000
0480
0800
1040
0020
2010
2000
ENDCHAR
STARTCHAR 031
ENCODING 31
SWIDTH 864 0
DWIDTH 12 0
BBX 12 18 0 -4
BITMAP
8000
4000
4000
0020
0000
1040
0480
0480
0000
0200
0300
0000
0480
0800
1040
0020
2010
2000
ENDCHAR
STARTCHAR 032
ENCODING 32
SWIDTH 864 0
DWIDTH 12 0
BBX 0 0 0 0
BITMAP
ENDCHAR
STARTCHAR 033
ENCODING 33
SWIDTH 864 0
DWIDTH 12 0
BBX 4 13 4 -2
BITMAP
60
70
F0
90
F0
F0
F0
70
60
00
00
60
60
ENDCHAR
STARTCHAR 034
ENCODING 34
SWIDTH 864 0
DWIDTH 12 0
BBX 6 4 3 6
BITMAP
CC
CC
84
84
ENDCHAR
STARTCHAR 035
ENCODING 35
SWIDTH 864 0
DWIDTH 12 0
BBX 8 8 2 0
BITMAP
66
FF
FF
66
66
FF
FF
66
ENDCHAR
STARTCHAR 036
ENCODING 36
SWIDTH 864 0
DWIDTH 12 0
BBX 8 16 2 -3
BITMAP
04
0C
3E
7F
C9
C9
E8
3C
1E
1B
19
99
FE
7C
10
10
ENDCHAR
STARTCHAR 037
ENCODING 37
SWIDTH 864 0
DWIDTH 12 0
BBX 10 12 1 -1
BITMAP
0100
6100
F100
9200
9600
F600
0D80
09C0
0A40
1240
31C0
7000
ENDCHAR
STARTCHAR 038
ENCODING 38
SWIDTH 864 0
DWIDTH 12 0
BBX 9 11 2 0
BITMAP
1C00
3C00
6600
6400
2C00
7800
FD80
8D80
8600
C300
FD80
ENDCHAR
STARTCHAR 039
ENCODING 39
SWIDTH 864 0
DWIDTH 12 0
BBX 3 6 4 6
BITMAP
60
60
60
40
40
80
ENDCHAR
STARTCHAR 040
ENCODING 40
SWIDTH 864 0
DWIDTH 12 0
BBX 3 13 5 -1
BITMAP
20
60
40
C0
C0
80
80
80
80
C0
C0
40
20
ENDCHAR
STARTCHAR 041
ENCODING 41
SWIDTH 864 0
DWIDTH 12 0
BBX 3 13 4 -1
BITMAP
80
C0
40
60
60
20
20
20
20
60
60
40
80
ENDCHAR
STARTCHAR 042
ENCODING 42
SWIDTH 864 0
DWIDTH 12 0
BBX 7 9 2 0
BITMAP
10
92
D6
7C
FE
FE
7C
D6
92
ENDCHAR
STARTCHAR 043
ENCODING 43
SWIDTH 864 0
DWIDTH 12 0
BBX 10 10 1 0
BITMAP
0C00
0C00
0C00
0C00
FFC0
FFC0
0C00
0C00
0C00
0C00
ENDCHAR
STARTCHAR 044
ENCODING 44
SWIDTH 864 0
DWIDTH 12 0
BBX 5 6 3 -3
BITMAP
30
78
30
20
60
C0
ENDCHAR
STARTCHAR 045
ENCODING 45
SWIDTH 864 0
DWIDTH 12 0
BBX 9 2 2 3
BITMAP
FF80
FF80
ENDCHAR
STARTCHAR 046
ENCODING 46
SWIDTH 864 0
DWIDTH 12 0
BBX 2 3 5 3
BITMAP
C0
C0
C0
ENDCHAR
STARTCHAR 047
ENCODING 47
SWIDTH 864 0
DWIDTH 12 0
BBX 6 13 3 -1
BITMAP
04
0C
0C
18
18
18
30
30
60
60
60
C0
C0
ENDCHAR
STARTCHAR 048
ENCODING 48
SWIDTH 864 0
DWIDTH 12 0
BBX 7 11 3 0
BITMAP
1C
3E
62
C2
82
82
82
86
8C
FC
F8
ENDCHAR
STARTCHAR 049
ENCODING 49
SWIDTH 864 0
DWIDTH 12 0
BBX 5 11 4 0
BITMAP
10
30
70
F0
30
30
30
30
30
30
78
ENDCHAR
STARTCHAR 050
ENCODING 50
SWIDTH 864 0
DWIDTH 12 0
BBX 7 12 3 0
BITMAP
1E
3E
62
C2
82
06
0C
18
30
62
FE
FE
ENDCHAR
STARTCHAR 051
ENCODING 51
SWIDTH 864 0
DWIDTH 12 0
BBX 7 11 3 0
BITMAP
1C
3E
46
06
04
1C
0E
02
86
CE
FC
ENDCHAR
STARTCHAR 052
ENCODING 52
SWIDTH 864 0
DWIDTH 12 0
BBX 7 13 3 0
BITMAP
20
20
62
66
66
E4
E4
FC
04
0C
0C
0C
0C
ENDCHAR
STARTCHAR 053
ENCODING 53
SWIDTH 864 0
DWIDTH 12 0
BBX 9 11 2 0
BITMAP
1F00
1F80
3000
3000
3C00
0600
0200
0200
8200
6600
7C00
ENDCHAR
STARTCHAR 054
ENCODING 54
SWIDTH 864 0
DWIDTH 12 0
BBX 7 11 3 0
BITMAP
1C
3C
E2
C0
C0
FC
E6
C2
C2
E6
7C
ENDCHAR
STARTCHAR 055
ENCODING 55
SWIDTH 864 0
DWIDTH 12 0
BBX 8 11 3 0
BITMAP
FF
FE
06
04
0C
08
18
10
30
20
60
ENDCHAR
STARTCHAR 056
ENCODING 56
SWIDTH 864 0
DWIDTH 12 0
BBX 7 11 3 0
BITMAP
1C
3E
66
46
6C
78
FC
C4
84
CC
F8
ENDCHAR
STARTCHAR 057
ENCODING 57
SWIDTH 864 0
DWIDTH 12 0
BBX 7 11 3 0
BITMAP
1C
3E
62
62
62
3E
1E
06
0C
1C
F8
ENDCHAR
STARTCHAR 058
ENCODING 58
SWIDTH 864 0
DWIDTH 12 0
BBX 3 7 6 -1
BITMAP
C0
E0
C0
00
C0
E0
C0
ENDCHAR
STARTCHAR 059
ENCODING 59
SWIDTH 864 0
DWIDTH 12 0
BBX 4 9 5 -2
BITMAP
60
70
60
00
60
70
60
40
80
ENDCHAR
STARTCHAR 060
ENCODING 60
SWIDTH 864 0
DWIDTH 12 0
BBX 12 17 0 -3
BITMAP
0010
0030
0030
00B0
02B0
0AB0
0AB0
2AB0
AAB0
AAB0
2AB0
2AB0
0AB0
02B0
00B0
0030
0010
ENDCHAR
STARTCHAR 061
ENCODING 61
SWIDTH 864 0
DWIDTH 12 0
BBX 8 7 2 1
BITMAP
FF
FF
00
00
00
FF
FF
ENDCHAR
STARTCHAR 062
ENCODING 62
SWIDTH 864 0
DWIDTH 12 0
BBX 12 15 0 -2
BITMAP
C000
D000
D000
D400
D500
D540
D540
D550
D550
D540
D500
D400
D000
C000
8000
ENDCHAR
STARTCHAR 063
ENCODING 63
SWIDTH 864 0
DWIDTH 12 0
BBX 8 14 2 -3
BITMAP
3C
7E
E7
C3
03
06
0C
1C
18
10
00
10
38
10
ENDCHAR
STARTCHAR 064
ENCODING 64
SWIDTH 864 0
DWIDTH 12 0
BBX 9 16 2 -3
BITMAP
1800
3C00
3C00
1800
7E00
7E00
7F00
9D80
9D80
BF80
3E00
3600
7600
6600
6600
6700
ENDCHAR
STARTCHAR 065
ENCODING 65
SWIDTH 864 0
DWIDTH 12 0
BBX 12 13 0 -1
BITMAP
3E00
3F00
2780
0D80
1D80
1880
18C0
18C0
1FE0
3060
3060
7070
F8F0
ENDCHAR
STARTCHAR 066
ENCODING 66
SWIDTH 864 0
DWIDTH 12 0
BBX 9 12 2 0
BITMAP
FC00
7E00
7F00
7300
7300
7200
7F00
7180
7180
7180
7F00
7E00
ENDCHAR
STARTCHAR 067
ENCODING 67
SWIDTH 864 0
DWIDTH 12 0
BBX 9 12 2 0
BITMAP
1F00
3F80
7F80
6180
E180
C100
C000
C000
C000
6180
7380
3F00
ENDCHAR
STARTCHAR 068
ENCODING 68
SWIDTH 864 0
DWIDTH 12 0
BBX 11 12 0 -1
BITMAP
3F80
3FC0
3060
3060
3060
3060
3060
3060
3060
30E0
3FC0
FF80
ENDCHAR
STARTCHAR 069
ENCODING 69
SWIDTH 864 0
DWIDTH 12 0
BBX 7 13 3 -1
BITMAP
FE
FE
FE
C0
C0
C0
F8
F8
C0
C0
C0
FE
FE
ENDCHAR
STARTCHAR 070
ENCODING 70
SWIDTH 864 0
DWIDTH 12 0
BBX 8 13 3 -1
BITMAP
FF
FF
FF
C0
C0
C0
F8
FC
C0
C0
C0
C0
C0
ENDCHAR
STARTCHAR 071
ENCODING 71
SWIDTH 864 0
DWIDTH 12 0
BBX 11 13 1 -1
BITMAP
1F80
3FC0
38C0
6000
6000
C000
C180
C3C0
C6E0
70E0
78C0
3FC0
0F00
ENDCHAR
STARTCHAR 072
ENCODING 72
SWIDTH 864 0
DWIDTH 12 0
BBX 10 14 1 -1
BITMAP
F3C0
6180
6180
6180
6180
6180
6180
7F80
6180
6180
6180
6180
6180
F3C0
ENDCHAR
STARTCHAR 073
ENCODING 73
SWIDTH 864 0
DWIDTH 12 0
BBX 6 13 3 -1
BITMAP
FC
FC
30
30
30
30
30
30
30
30
30
FC
FC
ENDCHAR
STARTCHAR 074
ENCODING 74
SWIDTH 864 0
DWIDTH 12 0
BBX 10 13 1 -1
BITMAP
03C0
0180
0180
0180
0180
0180
0180
0180
E180
4180
6380
7F00
1E00
ENDCHAR
STARTCHAR 075
ENCODING 75
SWIDTH 864 0
DWIDTH 12 0
BBX 12 13 0 -1
BITMAP
79E0
F9E0
33A0
2200
2600
2600
3C00
3C00
2610
2330
23F0
31E0
F0C0
ENDCHAR
STARTCHAR 076
ENCODING 76
SWIDTH 864 0
DWIDTH 12 0
BBX 7 12 3 -1
BITMAP
C0
C0
C0
C0
C0
C0
C0
C2
C2
C2
FE
FE
ENDCHAR
STARTCHAR 077
ENCODING 77
SWIDTH 864 0
DWIDTH 12 0
BBX 12 13 0 -1
BITMAP
1060
1060
1060
18E0
38E0
3DE0
25E0
25E0
6760
6260
6260
F060
F870
ENDCHAR
STARTCHAR 078
ENCODING 78
SWIDTH 864 0
DWIDTH 12 0
BBX 9 13 2 -1
BITMAP
0180
8180
C180
E180
B180
9180
9980
8900
8F00
8700
8700
8300
8000
ENDCHAR
STARTCHAR 079
ENCODING 79
SWIDTH 864 0
DWIDTH 12 0
BBX 10 11 1 0
BITMAP
0E00
3F80
71C0
E0C0
C0C0
CCC0
C0C0
C0C0
E0C0
7180
3F00
ENDCHAR
STARTCHAR 080
ENCODING 80
SWIDTH 864 0
DWIDTH 12 0
BBX 9 13 2 -1
BITMAP
7E00
7F00
4180
4080
4080
4180
7F00
7E00
4000
4000
4000
4000
C000
ENDCHAR
STARTCHAR 081
ENCODING 81
SWIDTH 864 0
DWIDTH 12 0
BBX 11 14 1 -2
BITMAP
3F00
7F80
7F80
C0C0
C0C0
C060
C060
C060
C660
4340
63C0
3FC0
00E0
0020
ENDCHAR
STARTCHAR 082
ENCODING 82
SWIDTH 864 0
DWIDTH 12 0
BBX 11 12 1 0
BITMAP
FE00
7F00
4300
4100
4300
4200
7C00
4E00
4700
6360
73E0
F1E0
ENDCHAR
STARTCHAR 083
ENCODING 83
SWIDTH 864 0
DWIDTH 12 0
BBX 9 12 2 0
BITMAP
1E00
3F00
7380
4000
4000
6000
1E00
0300
0180
C180
6180
7F00
ENDCHAR
STARTCHAR 084
ENCODING 84
SWIDTH 864 0
DWIDTH 12 0
BBX 10 12 1 -1
BITMAP
FFC0
FFC0
FFC0
8C40
0C00
0C00
0C00
0C00
0C00
0C00
0C00
1E00
ENDCHAR
STARTCHAR 085
ENCODING 85
SWIDTH 864 0
DWIDTH 12 0
BBX 9 12 2 0
BITMAP
C180
C180
C180
C180
C180
C180
C180
C180
C180
C180
6300
3E00
ENDCHAR
STARTCHAR 086
ENCODING 86
SWIDTH 864 0
DWIDTH 12 0
BBX 11 12 1 0
BITMAP
F1E0
E0C0
40C0
40C0
6080
6180
3380
3300
3300
1E00
1E00
0C00
ENDCHAR
STARTCHAR 087
ENCODING 87
SWIDTH 864 0
DWIDTH 12 0
BBX 11 12 1 0
BITMAP
C0E0
40C0
40C0
40C0
40C0
40C0
44C0
46C0
4EC0
7BC0
71C0
60C0
ENDCHAR
STARTCHAR 088
ENCODING 88
SWIDTH 864 0
DWIDTH 12 0
BBX 10 13 1 0
BITMAP
C0C0
60C0
3180
3980
1F00
0E00
0E00
1F00
1B00
3900
3180
6080
E0C0
ENDCHAR
STARTCHAR 089
ENCODING 89
SWIDTH 864 0
DWIDTH 12 0
BBX 10 14 1 -1
BITMAP
C0C0
C0C0
6080
2180
3100
1300
1A00
0E00
0400
0400
0400
0400
0400
0E00
ENDCHAR
STARTCHAR 090
ENCODING 90
SWIDTH 864 0
DWIDTH 12 0
BBX 11 12 1 0
BITMAP
4000
FFC0
FFC0
0300
0700
0600
0C00
0C00
1800
3020
7060
FFC0
ENDCHAR
STARTCHAR 091
ENCODING 91
SWIDTH 864 0
DWIDTH 12 0
BBX 5 15 4 -3
BITMAP
F8
F8
C0
C0
C0
C0
C0
C0
C0
C0
C0
C0
F8
F8
F8
ENDCHAR
STARTCHAR 092
ENCODING 92
SWIDTH 864 0
DWIDTH 12 0
BBX 7 12 3 0
BITMAP
C0
C0
60
20
20
30
18
18
0C
04
06
06
ENDCHAR
STARTCHAR 093
ENCODING 93
SWIDTH 864 0
DWIDTH 12 0
BBX 5 15 4 -3
BITMAP
F8
F8
08
08
48
48
08
08
08
08
08
08
F8
F8
F8
ENDCHAR
STARTCHAR 094
ENCODING 94
SWIDTH 864 0
DWIDTH 12 0
BBX 9 8 2 5
BITMAP
0800
1800
1C00
3E00
7600
6300
E180
C180
ENDCHAR
STARTCHAR 095
ENCODING 95
SWIDTH 864 0
DWIDTH 12 0
BBX 10 3 1 -3
BITMAP
FFC0
FFC0
FFC0
ENDCHAR
STARTCHAR 096
ENCODING 96
SWIDTH 864 0
DWIDTH 12 0
BBX 3 6 4 6
BITMAP
C0
E0
E0
C0
40
60
ENDCHAR
STARTCHAR 097
ENCODING 97
SWIDTH 864 0
DWIDTH 12 0
BBX 8 8 2 0
BITMAP
02
3E
6C
C4
C4
C5
ED
7E
ENDCHAR
STARTCHAR 098
ENCODING 98
SWIDTH 864 0
DWIDTH 12 0
BBX 8 13 2 -1
BITMAP
60
E0
E0
60
60
60
7E
72
63
63
63
FE
80
ENDCHAR
STARTCHAR 099
ENCODING 99
SWIDTH 864 0
DWIDTH 12 0
BBX 7 8 2 0
BITMAP
1C
7E
E0
E0
E0
E0
E2
7E
ENDCHAR
STARTCHAR 100
ENCODING 100
SWIDTH 864 0
DWIDTH 12 0
BBX 8 13 2 0
BITMAP
04
06
06
06
06
06
36
EE
C6
86
86
86
FF
ENDCHAR
STARTCHAR 101
ENCODING 101
SWIDTH 864 0
DWIDTH 12 0
BBX 7 9 2 0
BITMAP
1C
3E
66
E6
FC
F8
E0
E0
7E
ENDCHAR
STARTCHAR 102
ENCODING 102
SWIDTH 864 0
DWIDTH 12 0
BBX 7 12 2 0
BITMAP
1C
1E
1A
18
18
18
FE
FE
1A
18
18
18
ENDCHAR
STARTCHAR 103
ENCODING 103
SWIDTH 864 0
DWIDTH 12 0
BBX 7 13 2 -3
BITMAP
18
3E
66
66
64
3C
18
1E
64
E4
98
90
E0
ENDCHAR
STARTCHAR 104
ENCODING 104
SWIDTH 864 0
DWIDTH 12 0
BBX 9 13 2 -1
BITMAP
4000
C000
C000
C000
C000
C000
C000
D800
FC00
E400
C400
C580
E700
ENDCHAR
STARTCHAR 105
ENCODING 105
SWIDTH 864 0
DWIDTH 12 0
BBX 4 12 4 0
BITMAP
60
60
60
00
00
60
60
60
60
60
60
F0
ENDCHAR
STARTCHAR 106
ENCODING 106
SWIDTH 864 0
DWIDTH 12 0
BBX 6 15 2 -3
BITMAP
04
04
04
00
00
04
04
04
04
04
C4
C4
DC
F8
70
ENDCHAR
STARTCHAR 107
ENCODING 107
SWIDTH 864 0
DWIDTH 12 0
BBX 8 10 2 -1
BITMAP
C0
C0
C6
DA
D0
E0
D8
DC
CD
C3
ENDCHAR
STARTCHAR 108
ENCODING 108
SWIDTH 864 0
DWIDTH 12 0
BBX 6 12 2 0
BITMAP
1C
14
34
24
2C
2C
70
60
C0
4C
4C
78
ENDCHAR
STARTCHAR 109
ENCODING 109
SWIDTH 864 0
DWIDTH 12 0
BBX 10 8 1 0
BITMAP
3380
7B80
CCC0
CCC0
8CC0
89C0
8180
8100
ENDCHAR
STARTCHAR 110
ENCODING 110
SWIDTH 864 0
DWIDTH 12 0
BBX 10 9 1 0
BITMAP
6000
6000
7C00
E600
6600
6600
6640
66C0
6380
ENDCHAR
STARTCHAR 111
ENCODING 111
SWIDTH 864 0
DWIDTH 12 0
BBX 7 7 2 0
BITMAP
3C
66
C2
C2
C2
E6
7C
ENDCHAR
STARTCHAR 112
ENCODING 112
SWIDTH 864 0
DWIDTH 12 0
BBX 7 10 2 -3
BITMAP
7C
62
62
62
62
7C
60
60
60
C0
ENDCHAR
STARTCHAR 113
ENCODING 113
SWIDTH 864 0
DWIDTH 12 0
BBX 8 10 2 -3
BITMAP
74
FC
CC
84
CC
FC
74
05
07
04
ENDCHAR
STARTCHAR 114
ENCODING 114
SWIDTH 864 0
DWIDTH 12 0
BBX 8 9 2 -1
BITMAP
20
20
7F
66
60
60
E0
C0
C0
ENDCHAR
STARTCHAR 115
ENCODING 115
SWIDTH 864 0
DWIDTH 12 0
BBX 7 9 2 -1
BITMAP
1C
3C
62
20
18
04
04
C4
38
ENDCHAR
STARTCHAR 116
ENCODING 116
SWIDTH 864 0
DWIDTH 12 0
BBX 7 11 2 0
BITMAP
10
10
10
F0
FC
16
10
10
10
12
1E
ENDCHAR
STARTCHAR 117
ENCODING 117
SWIDTH 864 0
DWIDTH 12 0
BBX 7 7 2 0
BITMAP
82
82
82
82
C2
E6
7C
ENDCHAR
STARTCHAR 118
ENCODING 118
SWIDTH 864 0
DWIDTH 12 0
BBX 10 8 1 0
BITMAP
F1C0
60C0
6100
7100
3300
1A00
1A00
0E00
ENDCHAR
STARTCHAR 119
ENCODING 119
SWIDTH 864 0
DWIDTH 12 0
BBX 11 7 0 0
BITMAP
C060
40C0
60C0
2080
2E80
3B80
3380
ENDCHAR
STARTCHAR 120
ENCODING 120
SWIDTH 864 0
DWIDTH 12 0
BBX 7 8 2 0
BITMAP
82
C6
38
10
10
38
6C
C6
ENDCHAR
STARTCHAR 121
ENCODING 121
SWIDTH 864 0
DWIDTH 12 0
BBX 7 10 2 -4
BITMAP
E6
66
66
34
1C
18
30
20
E0
C0
ENDCHAR
STARTCHAR 122
ENCODING 122
SWIDTH 864 0
DWIDTH 12 0
BBX 8 8 2 0
BITMAP
FF
FF
06
0C
1C
30
60
FF
ENDCHAR
STARTCHAR 123
ENCODING 123
SWIDTH 864 0
DWIDTH 12 0
BBX 6 16 3 -3
BITMAP
1C
30
20
60
60
60
60
80
C0
60
60
60
60
20
38
1C
ENDCHAR
STARTCHAR 124
ENCODING 124
SWIDTH 864 0
DWIDTH 12 0
BBX 2 15 6 -3
BITMAP
C0
C0
C0
C0
C0
C0
C0
C0
C0
C0
C0
C0
C0
C0
C0
ENDCHAR
STARTCHAR 125
ENCODING 125
SWIDTH 864 0
DWIDTH 12 0
BBX 6 16 3 -3
BITMAP
E0
30
10
18
18
18
18
04
0C
18
18
18
18
10
70
E0
ENDCHAR
STARTCHAR 126
ENCODING 126
SWIDTH 864 0
DWIDTH 12 0
BBX 9 9 2 0
BITMAP
7000
F180
8F00
0600
0000
7000
F180
8F00
0600
ENDCHAR
STARTCHAR 127
ENCODING 127
SWIDTH 864 0
DWIDTH 12 0
BBX 12 18 0 -4
BITMAP
FFF0
FFF0
FFF0
FFF0
FFF0
FFF0
FFF0
FFF0
FFF0
FFF0
FFF0
FFF0
FFF0
FFF0
FFF0
FFF0
FFF0
FFF0
ENDCHAR
STARTCHAR 128
ENCODING 128
SWIDTH 864 0
DWIDTH 12 0
BBX 12 16 0 -4
BITMAP
FFF0
E030
E010
CFD0
8000
8B00
0820
C820
C920
0920
0920
0920
0920
0920
C920
0920
ENDCHAR
STARTCHAR 129
ENCODING 129
SWIDTH 864 0
DWIDTH 12 0
BBX 4 16 1 -4
BITMAP
C0
80
80
C0
C0
C0
C0
F0
F0
C0
C0
C0
C0
80
C0
C0
ENDCHAR
STARTCHAR 130
ENCODING 130
SWIDTH 864 0
DWIDTH 12 0
BBX 11 13 1 -1
BITMAP
F1E0
E0E0
C0E0
C0E0
C0E0
C0E0
C0E0
C0E0
C0E0
E0E0
71C0
3F80
1F00
ENDCHAR
STARTCHAR 131
ENCODING 131
SWIDTH 864 0
DWIDTH 12 0
BBX 10 17 1 -4
BITMAP
0C00
1E00
1E00
1200
1E00
0E00
1F00
3F80
6EC0
C640
0F00
1F80
3FC0
0400
0400
0400
0400
ENDCHAR
STARTCHAR 132
ENCODING 132
SWIDTH 864 0
DWIDTH 12 0
BBX 10 10 1 1
BITMAP
0C00
0C00
2D00
2D00
AD40
AD40
2D00
2D00
0C00
0C00
ENDCHAR
STARTCHAR 133
ENCODING 133
SWIDTH 864 0
DWIDTH 12 0
BBX 10 15 1 -4
BITMAP
2880
5F00
3200
6EC0
ED00
7F00
7D00
6EC0
7F00
F2C0
1380
3E00
0C00
0C00
0C00
ENDCHAR
STARTCHAR 134
ENCODING 134
SWIDTH 864 0
DWIDTH 12 0
BBX 10 12 1 -4
BITMAP
0A00
1000
2680
2E00
2E00
7B40
AF00
AD00
7FC0
D680
2F00
0C00
ENDCHAR
STARTCHAR 135
ENCODING 135
SWIDTH 864 0
DWIDTH 12 0
BBX 9 15 2 -4
BITMAP
6200
2600
1C80
F100
9900
1E80
7800
8E80
8D00
3800
6E00
2C00
0800
0C00
0C00
ENDCHAR
STARTCHAR 136
ENCODING 136
SWIDTH 864 0
DWIDTH 12 0
BBX 12 18 0 -4
BITMAP
1B10
1B10
0070
6480
2740
1830
F880
0740
0740
D830
2700
DCB0
00C0
2700
DB30
00C0
04E0
2F20
ENDCHAR
STARTCHAR 137
ENCODING 137
SWIDTH 864 0
DWIDTH 12 0
BBX 12 18 0 -4
BITMAP
8100
8200
4400
8820
9040
8880
9180
9200
4080
2C60
A100
8440
A100
1880
A400
C880
A440
DAB0
ENDCHAR
STARTCHAR 138
ENCODING 138
SWIDTH 864 0
DWIDTH 12 0
BBX 12 4 0 3
BITMAP
2490
6DB0
FFF0
DB40
ENDCHAR
STARTCHAR 139
ENCODING 139
SWIDTH 864 0
DWIDTH 12 0
BBX 11 16 0 -3
BITMAP
1100
0020
0000
8900
0020
1F00
3B80
6BC0
7FC0
4640
4400
0400
0400
3FC0
4420
3FC0
ENDCHAR
STARTCHAR 140
ENCODING 140
SWIDTH 864 0
DWIDTH 12 0
BBX 12 11 0 -4
BITMAP
00E0
01A0
0FF0
39D0
5D30
F330
DBF0
DFE0
79B0
DE10
DE10
ENDCHAR
STARTCHAR 141
ENCODING 141
SWIDTH 864 0
DWIDTH 12 0
BBX 11 17 1 -4
BITMAP
1200
1200
2E00
3E00
1220
1C60
2C60
20E0
3DC0
7E80
7FE0
F900
FF00
FD00
FF00
FF00
9200
ENDCHAR
STARTCHAR 142
ENCODING 142
SWIDTH 864 0
DWIDTH 12 0
BBX 10 16 1 -3
BITMAP
0E00
1F00
3F80
7FC0
BFC0
DF80
EF40
F6C0
FBC0
FBC0
FBC0
FBC0
FBC0
7B80
1F00
0400
ENDCHAR
STARTCHAR 143
ENCODING 143
SWIDTH 864 0
DWIDTH 12 0
BBX 12 18 0 -4
BITMAP
8000
4000
4000
0020
0000
1040
0480
0480
0000
0200
0300
0000
0480
0800
1040
0020
2010
2000
ENDCHAR
STARTCHAR 144
ENCODING 144
SWIDTH 864 0
DWIDTH 12 0
BBX 12 18 0 -4
BITMAP
8000
4000
4000
0020
0000
1040
0480
0480
0000
0200
0300
0000
0480
0800
1040
0020
2010
2000
ENDCHAR
STARTCHAR 145
ENCODING 145
SWIDTH 864 0
DWIDTH 12 0
BBX 12 18 0 -4
BITMAP
BBE0
FFF0
F5F0
EFF0
AFA0
FFF0
F6F0
7F70
FFF0
FF30
F9F0
DF70
EFF0
FED0
FFF0
C7F0
FEA0
FFF0
ENDCHAR
STARTCHAR 146
ENCODING 146
SWIDTH 864 0
DWIDTH 12 0
BBX 12 18 0 -4
BITMAP
FFF0
7BF0
7BF0
8400
CCC0
FFF0
7BF0
3330
3330
FFF0
FFF0
7BF0
3330
8400
FFF0
7BF0
3330
B730
ENDCHAR
STARTCHAR 147
ENCODING 147
SWIDTH 864 0
DWIDTH 12 0
BBX 10 12 1 0
BITMAP
0400
0E00
1F00
3B80
69C0
C8C0
FFC0
C4C0
E580
7580
3F00
0E00
ENDCHAR
STARTCHAR 148
ENCODING 148
SWIDTH 864 0
DWIDTH 12 0
BBX 12 17 0 -4
BITMAP
38B0
7CF0
1C60
0000
0000
F5F0
FBB0
FED0
0000
7CD0
FCF0
7CF0
B8A0
0000
79F0
3DF0
7EF0
ENDCHAR
STARTCHAR 149
ENCODING 149
SWIDTH 864 0
DWIDTH 12 0
BBX 12 18 0 -4
BITMAP
FBB0
7BF0
9D50
75B0
67F0
15D0
7FE0
AF70
5F90
1EB0
EFA0
6BF0
7850
FD40
9BF0
6F50
BCB0
D9F0
ENDCHAR
STARTCHAR 150
ENCODING 150
SWIDTH 864 0
DWIDTH 12 0
BBX 12 17 0 -4
BITMAP
38B0
74D0
1C60
0000
0000
F550
CBA0
EED0
0000
7CD0
F470
7450
B8A0
0000
5950
1950
76D0
ENDCHAR
STARTCHAR 151
ENCODING 151
SWIDTH 864 0
DWIDTH 12 0
BBX 11 9 1 1
BITMAP
0020
78E0
7E40
FEA0
C780
BBA0
0000
C6E0
87C0
ENDCHAR
STARTCHAR 152
ENCODING 152
SWIDTH 864 0
DWIDTH 12 0
BBX 12 13 0 -2
BITMAP
0010
0030
0070
00E0
01C0
0380
2700
2E00
3C00
1C00
2400
6700
C000
ENDCHAR
STARTCHAR 153
ENCODING 153
SWIDTH 864 0
DWIDTH 12 0
BBX 10 17 1 -4
BITMAP
C000
C000
7800
3E00
3F00
3980
3980
3880
3F80
3F00
38C0
3840
39C0
3F80
2F00
7800
F800
ENDCHAR
STARTCHAR 154
ENCODING 154
SWIDTH 864 0
DWIDTH 12 0
BBX 11 13 1 -1
BITMAP
00C0
0FC0
3FC0
7BC0
7BC0
79C0
F000
C000
C000
C000
FAE0
7D80
3F00
ENDCHAR
STARTCHAR 155
ENCODING 155
SWIDTH 864 0
DWIDTH 12 0
BBX 12 15 0 -3
BITMAP
1F00
1F80
1FC0
18E0
1870
3870
E870
E870
7870
1870
1870
18E0
1F80
1F80
1F00
ENDCHAR
STARTCHAR 156
ENCODING 156
SWIDTH 864 0
DWIDTH 12 0
BBX 12 15 0 -3
BITMAP
FFC0
7FE0
14F0
1C70
1C30
1C30
1C30
1C30
1C30
1C30
1C30
1C70
3FF0
7FE0
FFC0
ENDCHAR
STARTCHAR 157
ENCODING 157
SWIDTH 864 0
DWIDTH 12 0
BBX 12 18 0 -4
BITMAP
8000
4000
4000
0020
0000
1040
0480
0480
0000
0200
0300
0000
0480
0800
1040
0020
2010
2000
ENDCHAR
STARTCHAR 158
ENCODING 158
SWIDTH 864 0
DWIDTH 12 0
BBX 7 16 3 -2
BITMAP
18
10
30
20
60
C2
FE
FE
04
04
0C
18
18
50
60
78
ENDCHAR
STARTCHAR 159
ENCODING 159
SWIDTH 864 0
DWIDTH 12 0
BBX 12 16 0 -3
BITMAP
0300
6300
2420
0420
0420
0FC0
0EB0
CEB0
EEA0
2D40
05D0
14C0
03B0
D3B0
3F60
3D10
ENDCHAR
STARTCHAR 160
ENCODING 160
SWIDTH 864 0
DWIDTH 12 0
BBX 12 14 0 -1
BITMAP
0F00
0F00
C930
CF30
6000
6F60
6F60
0F00
0F00
0000
38C0
38C0
00E0
38E0
ENDCHAR
STARTCHAR 161
ENCODING 161
SWIDTH 864 0
DWIDTH 12 0
BBX 12 15 0 -2
BITMAP
6310
2F90
1AF0
1FC0
1FB0
7AF0
FAB0
DA90
E890
7FB0
0FB0
1CC0
1860
0820
3870
ENDCHAR
STARTCHAR 162
ENCODING 162
SWIDTH 864 0
DWIDTH 12 0
BBX 12 18 0 -4
BITMAP
0780
0790
17B0
6030
E330
E3B0
7BF0
7F70
3CF0
0FC0
0FC0
1FC0
7FF0
7FF0
3070
1870
18C0
10C0
ENDCHAR
STARTCHAR 163
ENCODING 163
SWIDTH 864 0
DWIDTH 12 0
BBX 11 17 0 -3
BITMAP
0100
01A0
00E0
0060
0060
0060
0060
0060
79E0
79E0
FFE0
DFE0
FFE0
F7C0
EF80
2F00
1E00
ENDCHAR
STARTCHAR 164
ENCODING 164
SWIDTH 864 0
DWIDTH 12 0
BBX 12 17 0 -4
BITMAP
6C00
FE00
D600
9C00
0C00
3F80
7F80
7EF0
E600
7A00
0700
3F00
3F00
7F80
E780
2000
6080
ENDCHAR
STARTCHAR 165
ENCODING 165
SWIDTH 864 0
DWIDTH 12 0
BBX 12 17 0 -3
BITMAP
0300
0480
0300
0000
0740
37E0
7D70
76F0
F770
FFF0
FFF0
FB70
77F0
77F0
5F80
0480
1CC0
ENDCHAR
STARTCHAR 166
ENCODING 166
SWIDTH 864 0
DWIDTH 12 0
BBX 12 17 0 -3
BITMAP
0370
03F0
0EF0
0DF0
0DF0
0FA0
1B70
1B60
37C0
E440
AD00
1F00
0FC0
0FE0
0BF0
14E0
1400
ENDCHAR
STARTCHAR 167
ENCODING 167
SWIDTH 864 0
DWIDTH 12 0
BBX 12 12 0 -4
BITMAP
D800
D800
F800
A800
FC30
FC10
FFD0
1FF0
1FE0
1FF0
1650
1450
ENDCHAR
STARTCHAR 168
ENCODING 168
SWIDTH 864 0
DWIDTH 12 0
BBX 12 18 0 -4
BITMAP
0E00
0A70
0750
0F60
E370
A3C0
73D0
FBA0
1FB0
1F70
1FE0
0FC0
0380
03C0
03C0
3FF0
3FF0
1B70
ENDCHAR
STARTCHAR 169
ENCODING 169
SWIDTH 864 0
DWIDTH 12 0
BBX 12 16 0 -3
BITMAP
2020
6020
68B0
E8B0
EFB0
EAF0
F7F0
FAF0
FDB0
E5F0
67B0
6370
67E0
0FE0
3F70
2850
ENDCHAR
STARTCHAR 170
ENCODING 170
SWIDTH 864 0
DWIDTH 12 0
BBX 11 18 1 -4
BITMAP
4700
A520
5540
2FA0
1F40
0F80
0D00
0700
1FC0
2520
2720
7FE0
4AA0
4AA0
4FA0
6760
0700
0700
ENDCHAR
STARTCHAR 171
ENCODING 171
SWIDTH 864 0
DWIDTH 12 0
BBX 12 13 0 -2
BITMAP
2220
1240
9240
4F80
4DD0
38E0
1240
7240
98E0
1DD0
1780
2240
4220
ENDCHAR
STARTCHAR 172
ENCODING 172
SWIDTH 864 0
DWIDTH 12 0
BBX 10 16 1 -3
BITMAP
0F80
34C0
28C0
25C0
17C0
1BC0
1F00
2F00
3E00
2E00
6C00
7800
5000
4000
4000
8000
ENDCHAR
STARTCHAR 173
ENCODING 173
SWIDTH 864 0
DWIDTH 12 0
BBX 12 11 0 -3
BITMAP
0030
1230
3620
7E20
6EE0
3FF0
7FF0
3FF0
FEF0
9850
10F0
ENDCHAR
STARTCHAR 174
ENCODING 174
SWIDTH 864 0
DWIDTH 12 0
BBX 11 16 0 -4
BITMAP
03C0
0620
0420
0D60
3820
30A0
71A0
6820
B060
3020
29E0
5160
DD60
B340
8C40
44C0
ENDCHAR
STARTCHAR 175
ENCODING 175
SWIDTH 864 0
DWIDTH 12 0
BBX 10 14 1 -3
BITMAP
0E00
1A40
3E40
0E40
3E40
7A40
75C0
F540
F500
F780
F780
F580
2F00
6180
ENDCHAR
STARTCHAR 176
ENCODING 176
SWIDTH 864 0
DWIDTH 12 0
BBX 6 15 4 -4
BITMAP
20
70
50
70
38
3C
34
34
74
74
BC
2C
28
28
28
ENDCHAR
STARTCHAR 177
ENCODING 177
SWIDTH 864 0
DWIDTH 12 0
BBX 11 17 1 -4
BITMAP
0020
0660
0960
0B40
0940
1640
69E0
9660
EFE0
F5E0
FE00
D500
CB00
DF00
1900
3980
3980
ENDCHAR
STARTCHAR 178
ENCODING 178
SWIDTH 864 0
DWIDTH 12 0
BBX 9 17 2 -4
BITMAP
0080
0080
B100
5300
0200
3600
D400
8000
F800
B800
C800
E000
6000
F000
F000
D000
D000
ENDCHAR
STARTCHAR 179
ENCODING 179
SWIDTH 864 0
DWIDTH 12 0
BBX 12 18 0 -4
BITMAP
0010
1010
1C70
0380
0100
0380
2FF0
7830
F450
E7D0
6030
6FF0
6FC0
1C60
1C70
1830
2010
6010
ENDCHAR
STARTCHAR 180
ENCODING 180
SWIDTH 864 0
DWIDTH 12 0
BBX 11 16 1 -3
BITMAP
0100
0540
0000
0060
0EE0
FFA0
7FE0
7EE0
59C0
DBE0
C7E0
7F80
7F80
FB80
3000
8080
ENDCHAR
STARTCHAR 181
ENCODING 181
SWIDTH 864 0
DWIDTH 12 0
BBX 12 12 0 0
BITMAP
1C00
3F00
7FE0
63C0
6000
7FE0
3FF0
0030
0030
7FF0
5FE0
F000
ENDCHAR
STARTCHAR 182
ENCODING 182
SWIDTH 864 0
DWIDTH 12 0
BBX 12 16 0 -3
BITMAP
62A0
62A0
A3E0
63E0
2200
2140
25E0
2110
2ED0
2080
7340
6080
23E0
24B0
22D0
2420
ENDCHAR
STARTCHAR 183
ENCODING 183
SWIDTH 864 0
DWIDTH 12 0
BBX 12 18 0 -4
BITMAP
1CC0
0490
F3B0
0F80
D6F0
37C0
0390
0380
0F80
1B60
1360
2760
2F80
1F80
1FC0
1FE0
2BE0
1AC0
ENDCHAR
STARTCHAR 184
ENCODING 184
SWIDTH 864 0
DWIDTH 12 0
BBX 11 13 1 -1
BITMAP
9520
6AC0
35C0
3A80
5540
BBA0
7F40
BFA0
5F40
3B80
2AC0
7540
CAE0
ENDCHAR
STARTCHAR 185
ENCODING 185
SWIDTH 864 0
DWIDTH 12 0
BBX 12 16 0 -4
BITMAP
0600
0900
1680
1080
0900
2F80
37C0
58E0
5F60
CEF0
C730
8900
E7A0
F140
3EE0
38A0
ENDCHAR
STARTCHAR 186
ENCODING 186
SWIDTH 864 0
DWIDTH 12 0
BBX 12 17 0 -4
BITMAP
0020
0050
0650
0750
0F20
0E60
09E0
38A0
2A20
0460
5520
91A0
BB60
0420
3820
E0A0
0020
ENDCHAR
STARTCHAR 187
ENCODING 187
SWIDTH 864 0
DWIDTH 12 0
BBX 12 15 0 -3
BITMAP
0380
0380
0280
0FC0
8FE0
5FF0
3FB0
1BE0
07C0
07C0
07C0
0FC0
0FE0
1C30
1830
ENDCHAR
STARTCHAR 188
ENCODING 188
SWIDTH 864 0
DWIDTH 12 0
BBX 12 16 0 -3
BITMAP
0E00
CA00
4F00
3B00
0EF0
2CF0
6CF0
02F0
2EF0
1A60
1500
6960
10E0
60E0
60C0
C060
ENDCHAR
STARTCHAR 189
ENCODING 189
SWIDTH 864 0
DWIDTH 12 0
BBX 12 17 0 -3
BITMAP
0100
0100
07B0
7FF0
7EF0
7EF0
6030
6030
FCF0
7CE0
1CA0
18E0
3A20
3A30
3360
0F80
6430
ENDCHAR
STARTCHAR 190
ENCODING 190
SWIDTH 864 0
DWIDTH 12 0
BBX 12 18 0 -4
BITMAP
03C0
03C0
0E80
3FC0
3FC0
33F0
E8B0
E5B0
D230
6090
F590
04D0
3840
F640
F660
F370
3070
3000
ENDCHAR
STARTCHAR 191
ENCODING 191
SWIDTH 864 0
DWIDTH 12 0
BBX 12 16 0 -4
BITMAP
0010
00F0
00F0
0060
1FF0
1FC0
7F80
FFC0
FFC0
FFE0
FF70
FF60
FB80
FC00
6400
2000
ENDCHAR
STARTCHAR 192
ENCODING 192
SWIDTH 864 0
DWIDTH 12 0
BBX 10 18 0 -4
BITMAP
0400
0600
0580
0780
C780
6600
6740
2780
2FC0
3F40
1E00
0E00
1E00
1C00
1C00
0A00
0900
0400
ENDCHAR
STARTCHAR 193
ENCODING 193
SWIDTH 864 0
DWIDTH 12 0
BBX 11 17 0 -4
BITMAP
1F80
7FC0
F3E0
CFE0
DFE0
D8E0
DAE0
DAE0
D8E0
DEE0
DEE0
DF60
57C0
7C40
7FA0
3E60
0020
ENDCHAR
STARTCHAR 194
ENCODING 194
SWIDTH 864 0
DWIDTH 12 0
BBX 12 11 0 -4
BITMAP
0800
1800
2BC0
FFE0
3FF0
1FF0
05F0
01B0
0010
0010
0060
ENDCHAR
STARTCHAR 195
ENCODING 195
SWIDTH 864 0
DWIDTH 12 0
BBX 12 18 0 -4
BITMAP
0C00
1E40
1B60
7FB0
F790
EB90
9F90
FBD0
E7D0
0FD0
5BD0
BBF0
23F0
43F0
06E0
0660
0640
0CC0
ENDCHAR
STARTCHAR 196
ENCODING 196
SWIDTH 864 0
DWIDTH 12 0
BBX 10 18 2 -4
BITMAP
1800
3C00
FC00
3E00
FE00
3E00
7E40
7E40
DE40
9EC0
DFC0
1FC0
1F80
1F00
3E00
3A00
1200
3200
ENDCHAR
STARTCHAR 197
ENCODING 197
SWIDTH 864 0
DWIDTH 12 0
BBX 12 17 0 -4
BITMAP
0700
0500
3760
F490
AA30
2390
1480
0B40
1680
1800
0680
0440
0860
0440
0280
0480
0CC0
ENDCHAR
STARTCHAR 198
ENCODING 198
SWIDTH 864 0
DWIDTH 12 0
BBX 12 17 0 -4
BITMAP
0400
0600
7900
7D80
0C80
FFF0
FDF0
C7F0
1DC0
27F0
6270
E3E0
C2A0
00A0
00B0
00B0
00B0
ENDCHAR
STARTCHAR 199
ENCODING 199
SWIDTH 864 0
DWIDTH 12 0
BBX 12 15 0 -2
BITMAP
0300
0380
0280
03B0
3FC0
3470
76F0
E6F0
67D0
6390
1330
1CE0
0CE0
1C50
3450
ENDCHAR
STARTCHAR 200
ENCODING 200
SWIDTH 864 0
DWIDTH 12 0
BBX 10 12 2 -3
BITMAP
7E00
7F00
6D00
F380
F380
C1C0
B2C0
F3C0
F3C0
6980
7F00
3F00
ENDCHAR
STARTCHAR 201
ENCODING 201
SWIDTH 864 0
DWIDTH 12 0
BBX 12 17 0 -4
BITMAP
0480
8490
8DB0
CFB0
DAF0
FFF0
F8F0
FFD0
A230
F550
CAD0
2CC0
EC40
8C20
08C0
0480
0080
ENDCHAR
STARTCHAR 202
ENCODING 202
SWIDTH 864 0
DWIDTH 12 0
BBX 10 16 2 -3
BITMAP
0600
1E00
0C00
0E00
0FC0
DF80
5DC0
5EC0
7E00
7E00
3E00
1900
0D80
0800
1000
1000
ENDCHAR
STARTCHAR 203
ENCODING 203
SWIDTH 864 0
DWIDTH 12 0
BBX 11 17 1 -4
BITMAP
0600
0900
10C0
1540
1040
3760
6560
6060
4060
4060
4060
5B20
4E60
44E0
70C0
E1E0
C060
ENDCHAR
STARTCHAR 204
ENCODING 204
SWIDTH 864 0
DWIDTH 12 0
BBX 12 16 0 -3
BITMAP
07C0
07C0
0CC0
0CC0
0C40
1FE0
3FF0
63D0
E7C0
C7C0
8FC0
0FC0
1FE0
3FE0
03E0
03E0
ENDCHAR
STARTCHAR 205
ENCODING 205
SWIDTH 864 0
DWIDTH 12 0
BBX 11 17 1 -4
BITMAP
5460
7C20
7C60
7C20
7860
7C20
7C60
7FA0
FFA0
FFE0
FFE0
AF60
BF00
FF00
2380
3380
0060
ENDCHAR
STARTCHAR 206
ENCODING 206
SWIDTH 864 0
DWIDTH 12 0
BBX 11 18 1 -4
BITMAP
F800
AA00
FFC0
F740
FAC0
7DC0
9DC0
DD80
FDC0
EF80
EF80
ED80
69A0
7CE0
18E0
18C0
10A0
3980
ENDCHAR
STARTCHAR 207
ENCODING 207
SWIDTH 864 0
DWIDTH 12 0
BBX 12 12 0 -1
BITMAP
1C00
1E00
0300
E3C0
0FF0
1FF0
FFF0
1BF0
E4F0
1810
3000
6000
ENDCHAR
STARTCHAR 208
ENCODING 208
SWIDTH 864 0
DWIDTH 12 0
BBX 12 17 0 -4
BITMAP
0380
0100
0380
2000
A380
6FD0
D750
61D0
0790
0600
0780
0C80
0C80
0C80
0480
0480
1CC0
ENDCHAR
STARTCHAR 209
ENCODING 209
SWIDTH 864 0
DWIDTH 12 0
BBX 11 15 0 -3
BITMAP
FF80
73C0
31C0
30E0
30E0
F0E0
70E0
30E0
30E0
30E0
F0E0
70C0
3180
3F80
3F00
ENDCHAR
STARTCHAR 210
ENCODING 210
SWIDTH 864 0
DWIDTH 12 0
BBX 12 16 0 -3
BITMAP
FF00
7FC0
18E0
1870
FC70
7830
3830
1830
FC30
7830
3830
1830
FC70
78E0
3FC0
1F80
ENDCHAR
STARTCHAR 211
ENCODING 211
SWIDTH 864 0
DWIDTH 12 0
BBX 10 14 1 -2
BITMAP
FE00
7380
7180
61C0
6BC0
61C0
61C0
6DC0
6DC0
61C0
7380
7F80
FF00
52C0
ENDCHAR
STARTCHAR 212
ENCODING 212
SWIDTH 864 0
DWIDTH 12 0
BBX 12 16 0 -3
BITMAP
1F00
3FC0
F860
F830
DAB0
9AB0
9830
1830
1B30
1830
1870
3FE0
FFC0
14F0
6CD0
FCB0
ENDCHAR
STARTCHAR 213
ENCODING 213
SWIDTH 864 0
DWIDTH 12 0
BBX 11 13 0 -1
BITMAP
FF80
7FC0
3FE0
20E0
E660
6660
2660
2660
EF60
6660
20E0
7FC0
FF00
ENDCHAR
STARTCHAR 214
ENCODING 214
SWIDTH 864 0
DWIDTH 12 0
BBX 10 13 1 -2
BITMAP
0E00
1F00
3980
78C0
F0C0
FF80
CF00
C600
70C0
71C0
3B00
0E00
0C00
ENDCHAR
STARTCHAR 215
ENCODING 215
SWIDTH 864 0
DWIDTH 12 0
BBX 8 16 3 -3
BITMAP
24
FC
FC
FE
83
80
80
BC
EE
84
80
80
FE
FE
50
6C
ENDCHAR
STARTCHAR 216
ENCODING 216
SWIDTH 864 0
DWIDTH 12 0
BBX 10 16 1 -3
BITMAP
0C00
1E00
3F00
7F80
E1C0
C0C0
E180
3E00
1E00
0F80
1E00
3600
3600
2600
3C00
3000
ENDCHAR
STARTCHAR 217
ENCODING 217
SWIDTH 864 0
DWIDTH 12 0
BBX 11 15 0 -2
BITMAP
0020
0060
0FE0
3FE0
38E0
6060
6020
C000
C180
C380
C7E0
70E0
78E0
3F80
7F00
ENDCHAR
STARTCHAR 218
ENCODING 218
SWIDTH 864 0
DWIDTH 12 0
BBX 10 13 1 -1
BITMAP
2000
2000
6600
E600
6000
6000
6000
6C00
7E00
6600
6640
66C0
7380
ENDCHAR
STARTCHAR 219
ENCODING 219
SWIDTH 864 0
DWIDTH 12 0
BBX 10 14 1 -1
BITMAP
0200
2700
2A80
6A00
EE00
6380
6A80
6700
6000
7E00
6600
6640
66C0
7380
ENDCHAR
STARTCHAR 220
ENCODING 220
SWIDTH 864 0
DWIDTH 12 0
BBX 11 14 1 -2
BITMAP
70C0
70C0
F1C0
30C0
30C0
30C0
3F80
3F80
3980
30C0
30C0
70C0
F9E0
2080
ENDCHAR
STARTCHAR 221
ENCODING 221
SWIDTH 864 0
DWIDTH 12 0
BBX 10 15 1 -3
BITMAP
0100
03C0
0100
0000
0100
0180
0180
0780
01C0
0180
8180
E3C0
7700
3F00
1C00
ENDCHAR
STARTCHAR 222
ENCODING 222
SWIDTH 864 0
DWIDTH 12 0
BBX 11 13 1 -1
BITMAP
07E0
03C0
01C0
0140
01C0
0140
01C0
01C0
F9C0
F1C0
71C0
3F80
1F00
ENDCHAR
STARTCHAR 223
ENCODING 223
SWIDTH 864 0
DWIDTH 12 0
BBX 10 14 1 -1
BITMAP
F000
5000
7000
5000
5000
7000
5000
5000
7040
50C0
7F40
5F40
6840
7FC0
ENDCHAR
STARTCHAR 224
ENCODING 224
SWIDTH 864 0
DWIDTH 12 0
BBX 10 15 1 -2
BITMAP
FE00
7C00
7800
7800
7800
7800
7800
7800
7840
7840
78C0
7FC0
7FC0
7FC0
FFC0
ENDCHAR
STARTCHAR 225
ENCODING 225
SWIDTH 864 0
DWIDTH 12 0
BBX 9 10 1 -2
BITMAP
FF00
7F80
3880
3880
3980
3E00
3000
3000
3000
2000
ENDCHAR
STARTCHAR 226
ENCODING 226
SWIDTH 864 0
DWIDTH 12 0
BBX 11 13 1 -3
BITMAP
FF80
3FC0
38C0
38E0
F8E0
78E0
3FC0
3F80
3800
3800
3800
3000
3000
ENDCHAR
STARTCHAR 227
ENCODING 227
SWIDTH 864 0
DWIDTH 12 0
BBX 12 14 0 -3
BITMAP
FF80
E7C0
67E0
3470
3C70
E470
3470
1FE0
FF80
6400
3400
1C00
1C00
1C00
ENDCHAR
STARTCHAR 228
ENCODING 228
SWIDTH 864 0
DWIDTH 12 0
BBX 12 15 0 -3
BITMAP
8210
4020
2240
0000
3F80
1FC0
1C60
1CE0
1C60
1FE0
1C40
1C00
1C00
1800
1400
ENDCHAR
STARTCHAR 229
ENCODING 229
SWIDTH 864 0
DWIDTH 12 0
BBX 12 16 0 -3
BITMAP
1E10
13E0
21C0
0000
FFC0
FFE0
1C70
1C70
FC70
3C70
1FF0
FFE0
7FC0
3C00
1C00
1C00
ENDCHAR
STARTCHAR 230
ENCODING 230
SWIDTH 864 0
DWIDTH 12 0
BBX 8 14 2 -2
BITMAP
7E
7E
00
00
00
FF
73
71
71
7E
60
60
60
40
ENDCHAR
STARTCHAR 231
ENCODING 231
SWIDTH 864 0
DWIDTH 12 0
BBX 11 16 1 -3
BITMAP
3F00
3F00
0000
FF80
7FC0
38C0
78E0
F8E0
78E0
3FC0
3F80
3800
3800
3800
3000
3000
ENDCHAR
STARTCHAR 232
ENCODING 232
SWIDTH 864 0
DWIDTH 12 0
BBX 10 14 1 -2
BITMAP
FE00
FF00
7F80
71C0
71C0
70C0
7FC0
7FC0
7000
7000
7000
7000
F000
F000
ENDCHAR
STARTCHAR 233
ENCODING 233
SWIDTH 864 0
DWIDTH 12 0
BBX 9 13 3 -3
BITMAP
0200
0600
3E00
7E00
E600
C200
E600
FE00
7A00
0200
0380
0300
0200
ENDCHAR
STARTCHAR 234
ENCODING 234
SWIDTH 864 0
DWIDTH 12 0
BBX 11 17 1 -4
BITMAP
8000
C000
FF00
FF80
7F80
70C0
60E0
C0E0
C060
C060
C060
C360
C360
61E0
3FE0
1F60
0020
ENDCHAR
STARTCHAR 235
ENCODING 235
SWIDTH 864 0
DWIDTH 12 0
BBX 11 17 1 -4
BITMAP
8020
C060
FFE0
FFE0
7FC0
70C0
60E0
C0E0
C060
C060
C060
C360
C360
61E0
3FE0
3F60
0020
ENDCHAR
STARTCHAR 236
ENCODING 236
SWIDTH 864 0
DWIDTH 12 0
BBX 12 15 0 -3
BITMAP
C000
7F80
3FC0
38C0
1840
1840
18C0
1F00
1F00
1B80
19C0
18C0
1040
1020
0010
ENDCHAR
STARTCHAR 237
ENCODING 237
SWIDTH 864 0
DWIDTH 12 0
BBX 12 13 0 -3
BITMAP
0240
03E0
07E0
0E30
0C30
1F80
7F80
00C0
E0C0
3F80
1D00
3680
0200
ENDCHAR
STARTCHAR 238
ENCODING 238
SWIDTH 864 0
DWIDTH 12 0
BBX 11 14 1 -2
BITMAP
0780
1FC0
1FC0
3860
3060
3040
3E00
0F00
01C0
00C0
60C0
FFC0
FF80
9E00
ENDCHAR
STARTCHAR 239
ENCODING 239
SWIDTH 864 0
DWIDTH 12 0
BBX 10 10 2 -1
BITMAP
2100
6180
6180
4180
C1C0
C1C0
E1C0
F3C0
7F80
3F00
ENDCHAR
STARTCHAR 240
ENCODING 240
SWIDTH 864 0
DWIDTH 12 0
BBX 9 15 2 -3
BITMAP
8000
8F80
8780
C380
C380
C380
C380
C380
C380
C380
C380
C380
FE00
FE00
3C00
ENDCHAR
STARTCHAR 241
ENCODING 241
SWIDTH 864 0
DWIDTH 12 0
BBX 9 17 2 -4
BITMAP
0080
0080
8180
8180
C180
C380
C380
C380
C380
C380
C380
C380
C380
C380
C380
FE00
3C00
ENDCHAR
STARTCHAR 242
ENCODING 242
SWIDTH 864 0
DWIDTH 12 0
BBX 11 16 1 -3
BITMAP
9920
9920
8820
C060
C660
C460
E0E0
E0E0
E0E0
E0E0
E0E0
E0E0
70C0
39C0
3F80
1F00
ENDCHAR
STARTCHAR 243
ENCODING 243
SWIDTH 864 0
DWIDTH 12 0
BBX 10 9 1 -2
BITMAP
80C0
C0C0
E180
6180
7380
3300
3700
3E00
1800
ENDCHAR
STARTCHAR 244
ENCODING 244
SWIDTH 864 0
DWIDTH 12 0
BBX 10 14 1 -2
BITMAP
7180
3180
0000
0600
C640
E040
70C0
3080
3980
1900
3B80
1F00
1E00
0400
ENDCHAR
STARTCHAR 245
ENCODING 245
SWIDTH 864 0
DWIDTH 12 0
BBX 10 14 1 -2
BITMAP
3F80
3F80
0000
0000
C040
E040
70C0
3080
3980
1900
3B80
1F00
1E00
0400
ENDCHAR
STARTCHAR 246
ENCODING 246
SWIDTH 864 0
DWIDTH 12 0
BBX 12 10 0 -1
BITMAP
1000
5070
F030
3030
1130
1320
1B60
1FC0
1CC0
0CC0
ENDCHAR
STARTCHAR 247
ENCODING 247
SWIDTH 864 0
DWIDTH 12 0
BBX 11 16 1 -3
BITMAP
8020
C040
C040
C020
C020
C040
C000
C040
C060
E060
6620
6F20
7BE0
79E0
60E0
4060
ENDCHAR
STARTCHAR 248
ENCODING 248
SWIDTH 864 0
DWIDTH 12 0
BBX 11 16 1 -3
BITMAP
0300
0320
9820
C320
C360
C060
C060
C060
C060
C460
4660
4F60
7BE0
79E0
20C0
0040
ENDCHAR
STARTCHAR 249
ENCODING 249
SWIDTH 864 0
DWIDTH 12 0
BBX 11 18 1 -4
BITMAP
8020
8020
8020
C020
C020
C060
C460
C460
C460
CE60
CE60
CE60
CE60
CF60
F9E0
F0E0
E0E0
C060
ENDCHAR
STARTCHAR 250
ENCODING 250
SWIDTH 864 0
DWIDTH 12 0
BBX 11 9 0 0
BITMAP
3FE0
3FE0
7FC0
C300
8700
0600
1800
3820
3FE0
ENDCHAR
STARTCHAR 251
ENCODING 251
SWIDTH 864 0
DWIDTH 12 0
BBX 8 13 2 -1
BITMAP
FF
FF
C3
C3
07
0E
1C
38
70
E3
E3
FF
FF
ENDCHAR
STARTCHAR 252
ENCODING 252
SWIDTH 864 0
DWIDTH 12 0
BBX 11 16 0 -3
BITMAP
3FE0
3060
F860
70E0
21C0
0380
0700
0E00
1C00
3800
3FE0
3FE0
3FE0
0040
00E0
0040
ENDCHAR
STARTCHAR 253
ENCODING 253
SWIDTH 864 0
DWIDTH 12 0
BBX 9 16 2 -3
BITMAP
FF80
D580
AB80
FF80
0780
0D80
1F00
3600
6C00
F800
B000
E000
FF00
8500
DB00
FF00
ENDCHAR
STARTCHAR 254
ENCODING 254
SWIDTH 864 0
DWIDTH 12 0
BBX 12 15 0 -2
BITMAP
FFF0
7FF0
3FF0
1FF0
00F0
01F0
03E0
07C0
0F80
1F00
3E00
7C00
FFC0
FFE0
FFF0
ENDCHAR
STARTCHAR 255
ENCODING 255
SWIDTH 864 0
DWIDTH 12 0
BBX 11 16 1 -3
BITMAP
0080
7BC0
FBE0
DF60
CC60
00C0
0180
0300
0600
0C00
1800
3000
6300
E700
7CC0
3000
ENDCHAR
ENDFONT
